<svg width="212" height="26" viewBox="0 0 212 26" version="1.1" xmlns="http://www.w3.org/2000/svg" xmlns:xlink="http://www.w3.org/1999/xlink">
<g id="Canvas" fill="none">
<g id="logo">
<g id="XMLID_234_">
<g id="XMLID_243_">
<path d="M 7.99269 0.255086L 7.99269 6.12206C 7.99269 8.07772 7.1424 8.88549 5.10172 8.88549C 3.06103 8.88549 2.21074 8.07772 2.21074 6.12206L 2.21074 0L 0.255086 0C 0.127543 0 0 0.127543 0 0.255086L 0 6.20709C 0 9.48069 2.0832 10.6286 5.10172 10.6286C 8.12023 10.6286 10.2034 9.48069 10.2034 6.20709L 10.2034 0L 8.24778 0C 8.12023 0 7.99269 0.0850286 7.99269 0.255086Z" transform="translate(0.680176 2.42517) scale(2)" fill="black"/>
</g>
<g id="XMLID_242_">
<path d="M 8.16275 1.70057C 8.3328 1.70057 8.41783 1.65806 8.46035 1.53051L 9.01303 0.127543C 9.05555 0.0425143 9.01303 0 8.928 0L 1.02034 0C 0.2976 0 0 0.212572 0 0.722743L 0 9.8208C 0 10.2459 0.212572 10.4585 0.765257 10.4585L 8.12023 10.4585C 8.29029 10.4585 8.37532 10.416 8.41783 10.2885L 8.97052 8.88549C 9.01303 8.80046 8.97052 8.75795 8.88549 8.75795L 2.16823 8.75795L 2.16823 6.88732C 2.16823 6.2496 2.50834 5.952 3.48617 5.952L 6.41966 5.952C 6.58972 5.952 6.67475 5.90949 6.71726 5.78195L 7.26995 4.42149C 7.31246 4.33646 7.26995 4.29394 7.18492 4.29394L 2.21074 4.29394L 2.21074 1.65806L 8.16275 1.65806L 8.16275 1.70057Z" transform="translate(57.2244 2.42517) scale(2)" fill="black"/>
</g>
<g id="XMLID_238_">
<path fill-rule="evenodd" clip-rule="evenodd" d="M 8.12024 4.93167C 8.97046 4.46399 9.31067 3.65622 9.31067 2.63589C 9.31067 0.340118 7.44006 0 5.48438 0L 1.02039 0C 0.297607 0 0 0.212585 0 0.722748L 0 9.8208C 0 10.2459 0.212524 10.4585 0.765259 10.4585L 6.24963 10.4585C 8.33276 10.4585 9.77832 9.65076 9.77832 7.56754C 9.8208 6.29211 9.31067 5.22925 8.12024 4.93167ZM 2.21069 1.65805L 5.6543 1.65805C 6.80225 1.65805 7.14233 2.08319 7.14233 2.97598C 7.14233 3.8688 6.80225 4.29395 5.6543 4.29395L 2.21069 4.29395L 2.21069 1.65805ZM 2.21069 8.75793L 6.07947 8.75793C 7.31238 8.75793 7.65247 8.33279 7.65247 7.35498C 7.65247 6.37714 7.31238 5.90948 6.07947 5.90948L 3.52869 5.90948C 2.55078 5.90948 2.21069 6.20709 2.21069 6.84479L 2.21069 8.75793Z" transform="translate(29.5049 2.42517) scale(2)" fill="black"/>
</g>
<g id="XMLID_235_">
<path fill-rule="evenodd" clip-rule="evenodd" d="M 7.52502 6.2496L 9.86328 10.2885C 9.90588 10.331 9.90588 10.4585 9.8208 10.4585L 7.82263 10.4585C 7.65259 10.4585 7.61011 10.416 7.52502 10.2885L 5.39929 6.46219L 3.48621 6.46219C 2.5083 6.46219 2.16821 6.75977 2.16821 7.39749L 2.16821 10.4585L 0.255127 10.4585C 0.127563 10.4585 0 10.331 0 10.2034L 0 0.722748C 0 0.212585 0.297607 0 1.02039 0L 5.48438 0C 8.07776 0 9.65076 0.680237 9.65076 3.23108C 9.65076 5.18674 8.67297 5.952 7.52502 6.2496ZM 2.12573 4.84662L 5.78198 4.84662C 7.14246 4.84662 7.44006 4.33646 7.44006 3.23108C 7.44006 2.16821 7.14246 1.65805 5.78198 1.65805L 2.12573 1.65805L 2.12573 4.84662Z" transform="translate(82.9028 2.42517) scale(2)" fill="black"/>
</g>
</g>
<g id="XMLID_224_">
<g id="XMLID_232_">
<path d="M 7.78012 9.5232L 7.7376 10.4585L 0 10.4585L 0 0L 7.44 0L 7.48252 0.977829L 1.06286 0.977829L 1.06286 4.59154L 6.58972 4.59154L 6.58972 5.44183L 1.06286 5.44183L 1.06286 9.5232L 7.78012 9.5232Z" transform="translate(119.635 2.42517) scale(2)" fill="#57AD56"/>
<path d="M 7.78012 9.5232L 7.7376 10.4585L 0 10.4585L 0 0L 7.44 0L 7.48252 0.977829L 1.06286 0.977829L 1.06286 4.59154L 6.58972 4.59154L 6.58972 5.44183L 1.06286 5.44183L 1.06286 9.5232L 7.78012 9.5232L 7.78012 9.5232Z" stroke-width="0.25" transform="translate(119.635 2.42517) scale(2)" stroke="#57AD56"/>
</g>
<g id="XMLID_229_">
<path fill-rule="evenodd" clip-rule="evenodd" d="M 2.33826 7.73761L 8.50281 7.73761L 9.69324 10.4585L 10.8837 10.4585L 6.07959 0L 4.84668 0L 0 10.4585L 1.14783 10.4585L 2.33826 7.73761ZM 2.72095 6.84482L 4.97424 1.78561L 5.39929 0.722748L 5.44189 0.722748L 5.86707 1.78561L 8.07776 6.84482L 2.72095 6.84482Z" transform="translate(143.358 2.42517) scale(2)" fill="#57AD56"/>
<path d="M 2.33826 7.73761L 8.50281 7.73761L 9.69324 10.4585L 10.8837 10.4585L 6.07959 0L 4.84668 0L 0 10.4585L 1.14783 10.4585L 2.33826 7.73761ZM 2.72095 6.84482L 4.97424 1.78561L 5.39929 0.722748L 5.44189 0.722748L 5.86707 1.78561L 8.07776 6.84482L 2.72095 6.84482Z" stroke-width="0.25" transform="translate(143.358 2.42517) scale(2)" stroke="#57AD56"/>
</g>
<g id="XMLID_227_">
<path d="M 4.97417 0.977829L 4.97417 10.4585L 3.91132 10.4585L 3.91132 0.977829L 0 0.977829L 0.0425143 0L 8.928 0L 8.928 0.977829L 4.97417 0.977829Z" transform="translate(170.482 2.42517) scale(2)" fill="#57AD56"/>
<path d="M 4.97417 0.977829L 4.97417 10.4585L 3.91132 10.4585L 3.91132 0.977829L 0 0.977829L 0.0425143 0L 8.928 0L 8.928 0.977829L 4.97417 0.977829L 4.97417 0.977829Z" stroke-width="0.25" transform="translate(170.482 2.42517) scale(2)" stroke="#57AD56"/>
</g>
<g id="XMLID_225_">
<path d="M 3.52869 10.8837C 2.0832 10.8837 0.935315 10.5435 0 9.99086L 0.170057 9.05555C 1.14789 9.60823 2.25326 9.94835 3.5712 9.94835C 5.52686 9.94835 6.5472 9.05555 6.5472 7.78012C 6.5472 5.01669 0.170057 6.46217 0.170057 2.89097C 0.170057 1.36046 1.31794 0 3.99634 0C 5.22926 0 6.33463 0.212572 7.22743 0.637715L 7.05737 1.53051C 6.07955 1.14789 5.14423 0.935315 4.03886 0.935315C 1.95566 0.935315 1.1904 1.87063 1.1904 2.80594C 1.1904 5.44183 7.56755 3.95383 7.56755 7.69509C 7.52503 9.56572 6.16457 10.8837 3.52869 10.8837Z" transform="translate(196.416 2) scale(2)" fill="#57AD56"/>
<path d="M 3.52869 10.8837C 2.0832 10.8837 0.935315 10.5435 0 9.99086L 0.170057 9.05555C 1.14789 9.60823 2.25326 9.94835 3.5712 9.94835C 5.52686 9.94835 6.5472 9.05555 6.5472 7.78012C 6.5472 5.01669 0.170057 6.46217 0.170057 2.89097C 0.170057 1.36046 1.31794 0 3.99634 0C 5.22926 0 6.33463 0.212572 7.22743 0.637715L 7.05737 1.53051C 6.07955 1.14789 5.14423 0.935315 4.03886 0.935315C 1.95566 0.935315 1.1904 1.87063 1.1904 2.80594C 1.1904 5.44183 7.56755 3.95383 7.56755 7.69509C 7.52503 9.56572 6.16457 10.8837 3.52869 10.8837L 3.52869 10.8837Z" stroke-width="0.25" transform="translate(196.416 2) scale(2)" stroke="#57AD56"/>
</g>
</g>
</g>
</g>
</svg>

